<svg xmlns="http://www.w3.org/2000/svg" xmlns:xlink="http://www.w3.org/1999/xlink" width="138.17" height="135.029" viewBox="0 0 138.17 135.029">
  <defs>
    <linearGradient id="linear-gradient" x1="0.199" y1="0.867" x2="0.921" y2="1" gradientUnits="objectBoundingBox">
      <stop offset="0" stop-color="#136381"/>
      <stop offset="1" stop-color="#a3cbd5"/>
    </linearGradient>
  </defs>
  <g id="horus-logo" transform="translate(0 1000.721)">
    <path id="Trazado_1" data-name="Trazado 1" d="M208.466-999.4c1.363,1.336,4.372,4.21,6.868,6.531,1.309,1.228,3.589,3.279,4.777,4.3.432.378,1.12,1.012,1.511,1.39a4.426,4.426,0,0,0,.85.715,4.386,4.386,0,0,1,.931.769c.445.432,1.268,1.174,1.849,1.66s1.322,1.133,1.66,1.457a8.109,8.109,0,0,0,1.079.891,11.96,11.96,0,0,1,1.417,1.214,8.084,8.084,0,0,0,1.025.891,6.268,6.268,0,0,1,.972.81,11.58,11.58,0,0,0,1.322,1.093,5.586,5.586,0,0,1,1,.877,1.97,1.97,0,0,0,.715.594,2.386,2.386,0,0,1,.756.621,8.023,8.023,0,0,0,1.282,1.066,3.84,3.84,0,0,1,.918.8,2.676,2.676,0,0,0,.729.648,8.61,8.61,0,0,1,1.187.971c.378.378.985.945,1.349,1.241.971.836,2.429,2.118,3.414,3.009.486.432,1.309,1.16,1.822,1.606s1.079.958,1.255,1.107,1.417,1.282,2.766,2.523,2.712,2.483,3.009,2.739.621.58.729.7.634.634,1.174,1.147c3.778,3.576,4.709,4.48,5.087,4.844,1.5,1.5,5.384,5.519,6.693,6.935.85.918,1.781,1.93,2.051,2.226s.769.81,1.079,1.147.769.863,1.012,1.174.742.891,1.12,1.282.877.931,1.133,1.187a10.368,10.368,0,0,1,.85,1.079,13.774,13.774,0,0,0,1.066,1.3,35.564,35.564,0,0,1,2.685,3.292,8.25,8.25,0,0,0,.823.985,3.467,3.467,0,0,1,.594.81,11.556,11.556,0,0,0,.958,1.268,2.753,2.753,0,0,1,.526.7,3.727,3.727,0,0,0,.621.85,8.843,8.843,0,0,1,1.363,1.781,7.836,7.836,0,0,0,1.43,1.835,1.963,1.963,0,0,1,.418.7,4.3,4.3,0,0,0,.675,1.052,5.315,5.315,0,0,1,.8,1.079c.229.4.594.985.81,1.282a8.162,8.162,0,0,1,1.174,1.9.559.559,0,0,0,.243.351c.256.2.391.4.971,1.457a14.328,14.328,0,0,0,1.187,1.9,6.938,6.938,0,0,1,.634,1.2,5.593,5.593,0,0,0,.675,1.228,4.324,4.324,0,0,1,.472.769.845.845,0,0,0,.189.364c.175.243.229.2,1.026-.553a16.343,16.343,0,0,0,1.228-1.282c.364-.472.378-.486.175-1.066a7.992,7.992,0,0,0-.337-.837,5.658,5.658,0,0,1-.324-.891,12.386,12.386,0,0,0-.8-2.186,11.727,11.727,0,0,1-.81-2.159c-.108-.337-.5-1.268-.877-2.078a11.811,11.811,0,0,1-.688-1.673,4.587,4.587,0,0,0-.351-.958c-1.025-2.186-1.3-2.766-1.943-4.115-.378-.81-.918-1.956-1.174-2.564a6.943,6.943,0,0,0-.661-1.3c-.094-.108-.54-.931-1-1.822s-.9-1.714-1-1.822a3.509,3.509,0,0,1-.4-.8,5.381,5.381,0,0,0-.5-.972c-.243-.351-.877-1.43-1.565-2.685a4.125,4.125,0,0,0-.58-.823,2.777,2.777,0,0,1-.526-.742c-.445-.783-1.241-2.1-1.687-2.766-.216-.324-.553-.823-.742-1.12s-.5-.742-.688-1.026-.553-.823-.823-1.228a6.762,6.762,0,0,0-.729-.931,5.885,5.885,0,0,1-.742-1.093,6.245,6.245,0,0,0-.648-.958,3.43,3.43,0,0,1-.58-.715c-.256-.378-.742-1.026-1.066-1.471s-.81-1.052-1.039-1.39-.715-.9-1.052-1.282a3.268,3.268,0,0,1-.607-.837,1.5,1.5,0,0,0-.418-.567,8.614,8.614,0,0,1-.877-1.066c-.5-.742-1.943-2.51-3.049-3.765a12.471,12.471,0,0,1-.931-1.147,9.415,9.415,0,0,0-.877-1.039c-.756-.769-2.145-2.348-2.55-2.874-.148-.189-.513-.607-.81-.9s-1-1.066-1.552-1.687-1.376-1.484-1.822-1.943-1.9-1.957-3.238-3.36c-3.387-3.535-4.763-4.938-4.831-4.938s-1.768-1.7-2.537-2.523c-.2-.2-1.187-1.174-2.213-2.132s-2.2-2.091-2.618-2.51a8.644,8.644,0,0,0-1.2-1.012,1.3,1.3,0,0,1-.5-.472,3.7,3.7,0,0,0-.675-.783,3.074,3.074,0,0,1-.607-.675,14.437,14.437,0,0,1,2.6-.216c1.417-.054,2.861-.121,3.2-.148s1.943-.148,3.576-.256,3.279-.229,3.643-.27c3.076-.256,4.223-.351,5.4-.418a7.573,7.573,0,0,0,1.471-.189c.121-.121.121-.121-3.562-.54-2.469-.283-4.291-.5-7.286-.891-.85-.108-2.28-.283-3.171-.391-3.346-.4-5.046-.648-9.985-1.417-1.93-.31-3.927-.621-4.453-.688s-1.43-.216-2.024-.324-2.1-.351-3.373-.54-2.807-.432-3.441-.54c-1.4-.243-1.484-.256-3.913-.607-1.079-.148-2.442-.364-3.036-.472s-1.322-.216-1.619-.256-.81-.122-1.147-.2-1.457-.256-2.5-.4-2.064-.324-2.294-.364C207.09-1000.785,207.238-1000.6,208.466-999.4Z" transform="translate(-179.307 0)" fill="url(#linear-gradient)"/>
    <path id="Trazado_2" data-name="Trazado 2" d="M53.231-722.522c-2.348.148-7.7.715-8.906.931-.364.068-1.133.189-1.687.283-1.16.189-6,1.133-6.814,1.336-.3.067-1.363.351-2.361.621s-2.159.553-2.564.661-.918.243-1.147.324-1.012.337-1.754.567c-1.349.4-3.63,1.187-4.52,1.538-.256.094-1.133.432-1.957.742a37.967,37.967,0,0,0-3.6,1.484,2.407,2.407,0,0,1-.648.27,15.209,15.209,0,0,0-1.592.715,20.2,20.2,0,0,1-1.984.9,4.45,4.45,0,0,0-.877.4c-.189.135-.945.526-1.687.891a14.177,14.177,0,0,0-1.552.81c-.108.094-.9.513-1.754.945s-1.822.972-2.159,1.2a14.681,14.681,0,0,1-2.091,1.187,10.113,10.113,0,0,0-1.147.7,9.687,9.687,0,0,1-1.147.675,6.166,6.166,0,0,0-.9.513L0-704.536v2.4c0,2.348.013,2.442.4,3.454a13.487,13.487,0,0,1,.54,1.795,1.39,1.39,0,0,0,.526,1.039c.54.391,1.039.5,1.133.256a8.154,8.154,0,0,1,1.336-1.147c.688-.513,1.444-1.133,1.687-1.349a4.689,4.689,0,0,1,1.012-.715,4.373,4.373,0,0,0,1.052-.742,6.148,6.148,0,0,1,1.147-.8A6.945,6.945,0,0,0,9.85-701a9.263,9.263,0,0,1,1.862-1.214,5.36,5.36,0,0,0,.945-.594,9.669,9.669,0,0,1,1.43-.877,17.734,17.734,0,0,0,1.7-1.026,5.279,5.279,0,0,1,.972-.553,7.593,7.593,0,0,0,.985-.553c1.012-.675,9.2-4.844,9.526-4.844a1.688,1.688,0,0,0,.594-.216,24.325,24.325,0,0,1,2.9-1.4,3.073,3.073,0,0,0,.769-.27l1.174-.54c.729-.337,3.373-1.336,3.94-1.471a10.968,10.968,0,0,0,1.322-.54,5.674,5.674,0,0,1,1.066-.418c.094,0,.9-.243,1.795-.526,2.172-.729,5.91-1.768,8.015-2.267a102.859,102.859,0,0,1,11.807-2.132c.823-.108,1.795-.256,2.159-.337s1.16-.189,1.754-.283c1.808-.256,2.739-.486,2.429-.594a3.433,3.433,0,0,1-.513-.216c-1.471-.8-.9-.729-6.5-.742C57.157-722.63,54.121-722.59,53.231-722.522Z" transform="translate(0 -240.577)" fill="url(#linear-gradient)"/>
    <path id="Trazado_3" data-name="Trazado 3" d="M238.031-683.454a35.759,35.759,0,0,0-10.525,2.766,11.011,11.011,0,0,1-1.66.729,1.318,1.318,0,0,0-.54.256,15.857,15.857,0,0,1-2.267,1.363,3.989,3.989,0,0,0-.891.621,5.11,5.11,0,0,1-.891.634,4.083,4.083,0,0,0-.877.634,6.269,6.269,0,0,1-.742.594,44.055,44.055,0,0,0-4.358,4.291,50.145,50.145,0,0,0-3.184,4.453,51.035,51.035,0,0,0-2.672,5.573,31.871,31.871,0,0,0-1.889,7.421,33.536,33.536,0,0,0,2,16.664,40.276,40.276,0,0,0,2.226,4.588c.2.337.715,1.12,1.106,1.754a17.207,17.207,0,0,0,1.093,1.552,7.815,7.815,0,0,1,.7.945,50.26,50.26,0,0,0,4.588,4.723c.364.3.891.7,1.174.891.445.3.864.621,1.579,1.2a.522.522,0,0,0,.256.135,1.85,1.85,0,0,1,.513.31,34.2,34.2,0,0,0,3.184,1.795,39.815,39.815,0,0,0,5.492,2.132,51.02,51.02,0,0,0,6.355,1.174,62.31,62.31,0,0,0,7.853-.068c.189-.04.891-.162,1.552-.27a26.616,26.616,0,0,0,3.306-.7,24.118,24.118,0,0,0,3.873-1.349,6.916,6.916,0,0,1,1.12-.459,15.869,15.869,0,0,0,2.429-1.282,4.869,4.869,0,0,1,.675-.4,13.356,13.356,0,0,0,2.213-1.457,5.657,5.657,0,0,1,.864-.648,20.708,20.708,0,0,0,3.238-2.874c.648-.661,1.457-1.484,1.822-1.835a2.77,2.77,0,0,0,.634-.783,2.325,2.325,0,0,1,.526-.742,13.45,13.45,0,0,0,1.606-2.294c.121-.216.432-.648.675-.971a2.767,2.767,0,0,0,.432-.769,2.029,2.029,0,0,1,.3-.648,18.672,18.672,0,0,0,1.322-2.658,7.4,7.4,0,0,1,.486-1.2,10.521,10.521,0,0,0,.661-1.876c.094-.445.351-1.484.58-2.294a27.958,27.958,0,0,0,.891-7.624,27.278,27.278,0,0,0-.931-8.163,8.722,8.722,0,0,0-1.822-4.183,7.48,7.48,0,0,0-.918-1.012,1.69,1.69,0,0,1-.432-.513,15.276,15.276,0,0,0-1.039-1.309c-.391-.445-1.592-1.808-2.672-3.036-2.307-2.631-3.076-3.481-4.453-4.925-.567-.594-1.322-1.417-1.66-1.822s-.9-.971-1.241-1.282-.823-.783-1.079-1.066-.594-.621-.729-.742-.661-.621-1.147-1.106-1.039-1-1.228-1.147a2.432,2.432,0,0,1-.486-.526,8.518,8.518,0,0,0-3.009-1.552,33.506,33.506,0,0,0-6.018-1.43A49.656,49.656,0,0,0,238.031-683.454Zm6.989,11.172a18.965,18.965,0,0,1,3.994,1.174,1.467,1.467,0,0,0,.526.189,10.507,10.507,0,0,1,2.388,1.228,2.161,2.161,0,0,0,.675.391,3.589,3.589,0,0,1,.918.594,6.745,6.745,0,0,0,1.025.756,2.654,2.654,0,0,1,.688.54,3.264,3.264,0,0,0,.715.7,20.3,20.3,0,0,1,2.78,3.076c.189.256.459.621.634.81a23.988,23.988,0,0,1,2.348,4.453,21.985,21.985,0,0,1,1.5,6.8,24.6,24.6,0,0,1-.3,5.991,25.924,25.924,0,0,1-.729,2.793,24.257,24.257,0,0,1-1.16,2.969c-.054.067-.3.5-.526.945s-.526.971-.621,1.16a2.216,2.216,0,0,1-.391.526.569.569,0,0,0-.2.337c0,.378-3.117,3.684-4.615,4.9a24.019,24.019,0,0,1-7.273,3.859,18.638,18.638,0,0,1-5.721.85,15.958,15.958,0,0,1-4.142-.216,23.72,23.72,0,0,1-6.935-2.4c-.378-.229-.891-.513-1.147-.634a28.79,28.79,0,0,1-6.531-6.1,40.518,40.518,0,0,1-2.523-4.547,30.586,30.586,0,0,1-1.214-4.142,17.687,17.687,0,0,1-.31-4.588,20.2,20.2,0,0,1,.256-4.318,31.862,31.862,0,0,1,1.646-5.262,7.285,7.285,0,0,0,.5-.877,13.4,13.4,0,0,1,1.484-2.564c.243-.3.594-.756.769-1.012a35.786,35.786,0,0,1,4.129-4.088,11.15,11.15,0,0,0,.931-.7,3.452,3.452,0,0,1,.837-.553,7.132,7.132,0,0,0,.945-.54,23.407,23.407,0,0,1,8.879-2.807A30.924,30.924,0,0,1,245.021-672.282Z" transform="translate(-179.268 -274.382)" fill="url(#linear-gradient)"/>
    <path id="Trazado_4" data-name="Trazado 4" d="M706.16-675.477c.014.068.864.985,1.876,2.051a45.282,45.282,0,0,1,4.358,4.952,1.593,1.593,0,0,0,.486.567,11.011,11.011,0,0,1,1.012.8,7.805,7.805,0,0,0,1.2.877,3.381,3.381,0,0,1,.769.526c.189.175.864.661,1.484,1.106s1.363.985,1.646,1.241a1.936,1.936,0,0,0,.675.445,3.53,3.53,0,0,1,.958.675,7.051,7.051,0,0,0,1.2.864,3.954,3.954,0,0,1,.985.715,12.132,12.132,0,0,0,1.3,1.052,35.833,35.833,0,0,1,2.928,2.307,13.142,13.142,0,0,0,1.174.945,12.917,12.917,0,0,1,1.282,1.052c.5.459.985.877,1.093.958.7.513,6.693,6.193,7.867,7.475.3.324.931.985,1.417,1.484,1.309,1.336,2.915,3.1,3.981,4.345.526.607,1.228,1.39,1.565,1.727a11.15,11.15,0,0,1,1.052,1.268,3.856,3.856,0,0,0,.7.81,2.869,2.869,0,0,1,.648.769,8.6,8.6,0,0,0,.81,1.052l.418.445v-16.421l-.634-.486c-.661-.5-2.618-1.849-4.561-3.144-.594-.4-1.2-.837-1.349-.971a3.781,3.781,0,0,0-.837-.5,2.613,2.613,0,0,1-.8-.513,15.8,15.8,0,0,0-1.592-1.079,19.539,19.539,0,0,1-1.7-1.133,3.435,3.435,0,0,0-.877-.526,3.87,3.87,0,0,1-.877-.526,15.491,15.491,0,0,0-1.808-1.147c-.81-.472-1.714-1.026-2.01-1.241a2.244,2.244,0,0,0-.7-.391,3.138,3.138,0,0,1-.823-.5,14.118,14.118,0,0,0-1.822-1.079,6.913,6.913,0,0,1-1.268-.715,11.353,11.353,0,0,0-1.619-.877,12.319,12.319,0,0,1-1.714-.931,7.7,7.7,0,0,0-1.2-.675,19.948,19.948,0,0,1-1.795-.958,7.768,7.768,0,0,0-1.147-.567,10.818,10.818,0,0,1-1.633-.783,14.143,14.143,0,0,0-1.619-.81,4.816,4.816,0,0,1-.81-.391,18.784,18.784,0,0,0-2.793-1.3,14.428,14.428,0,0,1-1.619-.742,13.782,13.782,0,0,0-1.646-.742,3.118,3.118,0,0,1-.729-.256C706.538-675.477,706.092-675.652,706.16-675.477Z" transform="translate(-610.871 -281.307)" fill="url(#linear-gradient)"/>
    <path id="Trazado_5" data-name="Trazado 5" d="M560.454-426.649a8.954,8.954,0,0,1-.8,1.5c-.391.621-.85,1.39-1.039,1.714a8.309,8.309,0,0,1-.567.85,13.031,13.031,0,0,0-.81,1.2,37.874,37.874,0,0,1-2.78,3.832,11.088,11.088,0,0,0-.864,1.147,5.463,5.463,0,0,1-.729.877,9.016,9.016,0,0,0-.783.81,55.628,55.628,0,0,1-6.153,5.91,2.752,2.752,0,0,0-.783.675,2.468,2.468,0,0,1-.81.661,2.308,2.308,0,0,0-.675.418c-.135.121-.54.459-.9.729s-.742.567-.823.634a3.858,3.858,0,0,1-.607.351,5.14,5.14,0,0,0-.837.58,6.044,6.044,0,0,1-.971.688c-.324.189-1.2.729-1.943,1.187a12.111,12.111,0,0,1-1.457.85,4.5,4.5,0,0,0-.81.472c-.378.256-1.025.621-1.417.823a18.19,18.19,0,0,0-2.28,1.214,1.914,1.914,0,0,1-.526.256,14.36,14.36,0,0,0-1.687.742c-.742.351-1.687.769-2.091.918s-1.768.688-3.036,1.187a68.125,68.125,0,0,1-7.826,2.5c-2.969.7-4.25.972-4.992,1.079-.445.054-1.2.175-1.687.256s-2.24.189-3.913.229c-1.97.054-2.888.121-2.631.2.661.175,4.169.621,6.342.81,2.7.229,13.358.229,16.124,0,4.156-.337,12.562-1.417,14.735-1.9.31-.067,1.282-.256,2.132-.418,2.739-.513,6.882-1.525,9.175-2.213.337-.108.823-.229,1.079-.283a22.676,22.676,0,0,0,2.7-.8c.256-.094.931-.324,1.484-.486,1.592-.472,5.586-1.849,6.652-2.267a5.381,5.381,0,0,1,.742-.256,2.7,2.7,0,0,0,.634-.243,6.756,6.756,0,0,1,1.147-.445c.486-.148,1.417-.526,2.078-.823a7.66,7.66,0,0,1,1.376-.553,14.433,14.433,0,0,0,2.78-1.2l1.052-.486v-4.561c0-3.441-.04-4.615-.162-4.763-.094-.121-.418-.472-.715-.8s-.9-1.012-1.349-1.538c-1.741-2.051-4.79-5.465-6.828-7.624-.567-.607-1.349-1.457-1.741-1.9A18.062,18.062,0,0,0,560.589-427,.755.755,0,0,0,560.454-426.649Z" transform="translate(-435.292 -496.307)" fill="url(#linear-gradient)"/>
    <path id="Trazado_6" data-name="Trazado 6" d="M1.579-391.136C.486-389.949,0-389.126,0-388.505v.5l6.1,4.858c3.346,2.658,6.355,5.1,6.679,5.411a2.825,2.825,0,0,0,.715.58,2.5,2.5,0,0,1,.7.54,9.44,9.44,0,0,0,1.336,1.026,3.909,3.909,0,0,1,.985.8,1.736,1.736,0,0,0,.661.526,4.232,4.232,0,0,1,1.052.742,2.817,2.817,0,0,0,.742.553,2.617,2.617,0,0,1,.742.513c.324.283,1.079.837,1.673,1.241a17,17,0,0,1,1.592,1.174,1.84,1.84,0,0,0,.688.445,2.755,2.755,0,0,1,.783.526,10.627,10.627,0,0,0,1.214.918c.756.472,3.616,2.4,4.412,2.982a2.805,2.805,0,0,0,.715.432,26.021,26.021,0,0,1,2.6,1.7,9.593,9.593,0,0,0,1.079.607,6.948,6.948,0,0,1,1.079.661,15.285,15.285,0,0,0,1.619,1.012,14.552,14.552,0,0,1,1.633,1.025.97.97,0,0,0,.472.256,4.743,4.743,0,0,1,1.133.607c.526.337,1.457.891,2.091,1.228a17.716,17.716,0,0,1,1.606.945,3.829,3.829,0,0,0,.8.418,10.622,10.622,0,0,1,1.633.864,8.727,8.727,0,0,0,1.457.8,8.118,8.118,0,0,1,1.862,1.093,80.544,80.544,0,0,1-7.826,3.9c-.661.31-1.579.742-2.024.945-1.768.837-2.6,1.214-2.672,1.214a2.48,2.48,0,0,0-.58.337,1.829,1.829,0,0,1-.729.337,10.868,10.868,0,0,0-1.7.715,15.223,15.223,0,0,1-1.822.81,9.6,9.6,0,0,0-1.322.621,16.727,16.727,0,0,1-1.876.891c-.5.189-1.079.445-1.309.567a28.463,28.463,0,0,1-2.631,1.255,3.723,3.723,0,0,0-.81.4,5.38,5.38,0,0,1-.783.4,3.15,3.15,0,0,0-.607.27,10.755,10.755,0,0,1-1.12.486,14.462,14.462,0,0,0-1.579.729l-.972.54H32.559c7.651,0,13.048-.054,13.048-.121s.324-.175.715-.256c1.079-.2,3.414-.81,5.357-1.39.486-.148,1.147-.351,1.484-.459,1.984-.594,3.171-.971,4.25-1.349.675-.243,1.727-.607,2.361-.81s1.39-.472,1.687-.594.769-.337,1.052-.459a3.176,3.176,0,0,1,.661-.229,6.545,6.545,0,0,0,.972-.351c2.9-1.241,3.67-1.592,5.141-2.307a15.3,15.3,0,0,1,1.633-.715,2.4,2.4,0,0,0,.688-.391,9.755,9.755,0,0,1,1.133-.688,20.506,20.506,0,0,0,2.4-1.457,11.494,11.494,0,0,1,1.093-.769,10.574,10.574,0,0,0,1.147-.877.9.9,0,0,1,.337-.27,23.341,23.341,0,0,0,3.913-3.913c0-.283-1.106-.486-3.98-.742a7.332,7.332,0,0,1-1.012-.135c-.108-.027-.985-.148-1.957-.27-1.849-.216-3.927-.54-6.612-1.012-.891-.162-1.957-.337-2.361-.4s-1.012-.175-1.349-.256-.9-.2-1.282-.283c-1.565-.351-5.816-1.4-7.084-1.768-.553-.148-1.376-.364-1.822-.472s-.958-.243-1.147-.31-1.43-.472-2.766-.9-2.915-.945-3.508-1.16-1.687-.607-2.429-.85-1.957-.7-2.7-1.012-1.619-.648-1.957-.742a32.614,32.614,0,0,1-4.115-1.822c-3-1.4-6.409-3.157-7.354-3.778-.108-.067-.553-.31-.972-.54a3.841,3.841,0,0,1-.85-.54,3.717,3.717,0,0,0-.783-.5,8.289,8.289,0,0,1-1.255-.8,2.637,2.637,0,0,0-.688-.459,16.823,16.823,0,0,1-2.375-1.538,2.02,2.02,0,0,0-.594-.351,3.205,3.205,0,0,1-.8-.513c-.364-.27-.877-.648-1.147-.837-.567-.378-1.754-1.268-3.4-2.537-.607-.472-1.43-1.093-1.808-1.39a2.9,2.9,0,0,1-.715-.661c0-.081-.324-.324-.729-.54a4.528,4.528,0,0,1-1.052-.823,3.909,3.909,0,0,0-.864-.729,4.317,4.317,0,0,1-.918-.742,8.664,8.664,0,0,0-1.052-.985,5.92,5.92,0,0,1-.891-.8,2.839,2.839,0,0,0-1.066-.918c-.094,0-.351-.243-.594-.526A20.861,20.861,0,0,0,2.51-392,4.9,4.9,0,0,0,1.579-391.136Z" transform="translate(0 -526.585)" fill="url(#linear-gradient)"/>
  </g>
</svg>
